M48
;DRILL file {KiCad (5.0.0)} date 08/21/19 13:25:42
;FORMAT={-:-/ absolute / inch / decimal}
FMAT,2
INCH,TZ
T1C0.0118
T2C0.0157
T3C0.0315
T4C0.0394
%
G90
G05
M72
T1
X1.6Y-1.955
X1.65Y-1.55
X1.702Y-1.676
X1.715Y-2.105
X1.715Y-2.14
X1.745Y-2.105
X1.7606Y-2.0004
X1.775Y-2.105
X1.7902Y-2.
X1.84Y-2.045
X1.875Y-1.532
X1.9048Y-2.0702
X1.938Y-2.138
X1.97Y-2.138
X2.002Y-2.136
X2.0387Y-1.9557
X2.075Y-1.47
X2.2Y-1.675
X2.2Y-1.815
X2.2Y-1.9
X2.432Y-1.886
X2.435Y-1.805
X2.68Y-1.91
X2.72Y-1.9143
X2.775Y-1.725
X2.86Y-1.81
X3.05Y-1.7625
X3.175Y-1.895
X3.505Y-1.775
X3.505Y-1.905
X3.6Y-1.9
X3.705Y-1.815
X3.705Y-1.88
X3.83Y-1.95
X3.895Y-1.925
T2
X1.65Y-2.2
X1.725Y-1.895
X1.725Y-1.935
X1.88Y-2.13
X1.9098Y-1.8352
X1.94Y-1.81
X2.005Y-1.9789
T3
X2.9Y-1.7
X2.9Y-2.
X3.Y-1.7
X3.Y-2.
X3.1Y-1.7
X3.1Y-2.
X3.2Y-1.7
X3.2Y-2.
X3.3Y-1.7
X3.3Y-2.
X3.5Y-1.7
X3.5Y-2.
X3.6Y-1.7
X3.6Y-2.
X3.7Y-1.7
X3.7Y-2.
X3.8Y-1.7
X3.8Y-2.
X3.9Y-1.7
X3.9Y-2.
X2.3Y-1.7
X2.3Y-2.
X2.4Y-1.7
X2.4Y-2.
X2.5Y-1.7
X2.5Y-2.
X2.6Y-1.7
X2.6Y-2.
X2.7Y-1.7
X2.7Y-2.
T4
X2.225Y-2.2
X2.325Y-2.2
X2.225Y-1.5
X2.425Y-1.5
X2.525Y-1.5
X2.625Y-1.5
X2.725Y-1.5
X2.825Y-1.5
X2.925Y-1.5
X3.025Y-1.5
X3.125Y-1.5
X3.225Y-1.5
X3.325Y-1.5
X3.425Y-1.5
X3.525Y-1.5
X3.625Y-1.5
X3.725Y-1.5
X3.825Y-1.5
X3.925Y-1.5
X2.425Y-2.2
X2.525Y-2.2
X2.625Y-2.2
X2.725Y-2.2
X2.825Y-2.2
X2.925Y-2.2
X3.025Y-2.2
X3.125Y-2.2
X3.225Y-2.2
X3.325Y-2.2
X3.425Y-2.2
X3.525Y-2.2
X3.625Y-2.2
X3.725Y-2.2
X3.825Y-2.2
X3.925Y-2.2
X2.025Y-1.6
X2.325Y-1.5
X1.725Y-1.5
X1.825Y-1.5
X1.925Y-1.5
X1.725Y-1.6
X1.825Y-1.6
X1.925Y-1.6
T0
M30
