G04 #@! TF.GenerationSoftware,KiCad,Pcbnew,(5.0.0)*
G04 #@! TF.CreationDate,2019-08-21T13:25:49-04:00*
G04 #@! TF.ProjectId,7segment,377365676D656E742E6B696361645F70,B*
G04 #@! TF.SameCoordinates,Original*
G04 #@! TF.FileFunction,Soldermask,Bot*
G04 #@! TF.FilePolarity,Negative*
%FSLAX46Y46*%
G04 Gerber Fmt 4.6, Leading zero omitted, Abs format (unit mm)*
G04 Created by KiCad (PCBNEW (5.0.0)) date 08/21/19 13:25:49*
%MOMM*%
%LPD*%
G01*
G04 APERTURE LIST*
%ADD10C,0.100000*%
%ADD11C,1.350000*%
%ADD12R,1.900000X1.900000*%
%ADD13O,1.900000X1.900000*%
%ADD14R,1.100000X1.400000*%
%ADD15R,0.700000X1.000000*%
%ADD16R,0.600000X1.000000*%
%ADD17R,1.800000X1.800000*%
%ADD18C,1.800000*%
G04 APERTURE END LIST*
D10*
G04 #@! TO.C,C4*
G36*
X47282289Y-55081413D02*
X47310778Y-55085639D01*
X47338715Y-55092637D01*
X47365832Y-55102340D01*
X47391867Y-55114653D01*
X47416570Y-55129460D01*
X47439703Y-55146616D01*
X47461043Y-55165957D01*
X47480384Y-55187297D01*
X47497540Y-55210430D01*
X47512347Y-55235133D01*
X47524660Y-55261168D01*
X47534363Y-55288285D01*
X47541361Y-55316222D01*
X47545587Y-55344711D01*
X47547000Y-55373477D01*
X47547000Y-56386523D01*
X47545587Y-56415289D01*
X47541361Y-56443778D01*
X47534363Y-56471715D01*
X47524660Y-56498832D01*
X47512347Y-56524867D01*
X47497540Y-56549570D01*
X47480384Y-56572703D01*
X47461043Y-56594043D01*
X47439703Y-56613384D01*
X47416570Y-56630540D01*
X47391867Y-56645347D01*
X47365832Y-56657660D01*
X47338715Y-56667363D01*
X47310778Y-56674361D01*
X47282289Y-56678587D01*
X47253523Y-56680000D01*
X46490477Y-56680000D01*
X46461711Y-56678587D01*
X46433222Y-56674361D01*
X46405285Y-56667363D01*
X46378168Y-56657660D01*
X46352133Y-56645347D01*
X46327430Y-56630540D01*
X46304297Y-56613384D01*
X46282957Y-56594043D01*
X46263616Y-56572703D01*
X46246460Y-56549570D01*
X46231653Y-56524867D01*
X46219340Y-56498832D01*
X46209637Y-56471715D01*
X46202639Y-56443778D01*
X46198413Y-56415289D01*
X46197000Y-56386523D01*
X46197000Y-55373477D01*
X46198413Y-55344711D01*
X46202639Y-55316222D01*
X46209637Y-55288285D01*
X46219340Y-55261168D01*
X46231653Y-55235133D01*
X46246460Y-55210430D01*
X46263616Y-55187297D01*
X46282957Y-55165957D01*
X46304297Y-55146616D01*
X46327430Y-55129460D01*
X46352133Y-55114653D01*
X46378168Y-55102340D01*
X46405285Y-55092637D01*
X46433222Y-55085639D01*
X46461711Y-55081413D01*
X46490477Y-55080000D01*
X47253523Y-55080000D01*
X47282289Y-55081413D01*
X47282289Y-55081413D01*
G37*
D11*
X46872000Y-55880000D03*
D10*
G36*
X45232289Y-55081413D02*
X45260778Y-55085639D01*
X45288715Y-55092637D01*
X45315832Y-55102340D01*
X45341867Y-55114653D01*
X45366570Y-55129460D01*
X45389703Y-55146616D01*
X45411043Y-55165957D01*
X45430384Y-55187297D01*
X45447540Y-55210430D01*
X45462347Y-55235133D01*
X45474660Y-55261168D01*
X45484363Y-55288285D01*
X45491361Y-55316222D01*
X45495587Y-55344711D01*
X45497000Y-55373477D01*
X45497000Y-56386523D01*
X45495587Y-56415289D01*
X45491361Y-56443778D01*
X45484363Y-56471715D01*
X45474660Y-56498832D01*
X45462347Y-56524867D01*
X45447540Y-56549570D01*
X45430384Y-56572703D01*
X45411043Y-56594043D01*
X45389703Y-56613384D01*
X45366570Y-56630540D01*
X45341867Y-56645347D01*
X45315832Y-56657660D01*
X45288715Y-56667363D01*
X45260778Y-56674361D01*
X45232289Y-56678587D01*
X45203523Y-56680000D01*
X44440477Y-56680000D01*
X44411711Y-56678587D01*
X44383222Y-56674361D01*
X44355285Y-56667363D01*
X44328168Y-56657660D01*
X44302133Y-56645347D01*
X44277430Y-56630540D01*
X44254297Y-56613384D01*
X44232957Y-56594043D01*
X44213616Y-56572703D01*
X44196460Y-56549570D01*
X44181653Y-56524867D01*
X44169340Y-56498832D01*
X44159637Y-56471715D01*
X44152639Y-56443778D01*
X44148413Y-56415289D01*
X44147000Y-56386523D01*
X44147000Y-55373477D01*
X44148413Y-55344711D01*
X44152639Y-55316222D01*
X44159637Y-55288285D01*
X44169340Y-55261168D01*
X44181653Y-55235133D01*
X44196460Y-55210430D01*
X44213616Y-55187297D01*
X44232957Y-55165957D01*
X44254297Y-55146616D01*
X44277430Y-55129460D01*
X44302133Y-55114653D01*
X44328168Y-55102340D01*
X44355285Y-55092637D01*
X44383222Y-55085639D01*
X44411711Y-55081413D01*
X44440477Y-55080000D01*
X45203523Y-55080000D01*
X45232289Y-55081413D01*
X45232289Y-55081413D01*
G37*
D11*
X44822000Y-55880000D03*
G04 #@! TD*
D12*
G04 #@! TO.C,J6*
X59055000Y-55880000D03*
G04 #@! TD*
G04 #@! TO.C,J7*
X59055000Y-38100000D03*
G04 #@! TD*
D10*
G04 #@! TO.C,C3*
G36*
X53875289Y-50516413D02*
X53903778Y-50520639D01*
X53931715Y-50527637D01*
X53958832Y-50537340D01*
X53984867Y-50549653D01*
X54009570Y-50564460D01*
X54032703Y-50581616D01*
X54054043Y-50600957D01*
X54073384Y-50622297D01*
X54090540Y-50645430D01*
X54105347Y-50670133D01*
X54117660Y-50696168D01*
X54127363Y-50723285D01*
X54134361Y-50751222D01*
X54138587Y-50779711D01*
X54140000Y-50808477D01*
X54140000Y-51571523D01*
X54138587Y-51600289D01*
X54134361Y-51628778D01*
X54127363Y-51656715D01*
X54117660Y-51683832D01*
X54105347Y-51709867D01*
X54090540Y-51734570D01*
X54073384Y-51757703D01*
X54054043Y-51779043D01*
X54032703Y-51798384D01*
X54009570Y-51815540D01*
X53984867Y-51830347D01*
X53958832Y-51842660D01*
X53931715Y-51852363D01*
X53903778Y-51859361D01*
X53875289Y-51863587D01*
X53846523Y-51865000D01*
X52833477Y-51865000D01*
X52804711Y-51863587D01*
X52776222Y-51859361D01*
X52748285Y-51852363D01*
X52721168Y-51842660D01*
X52695133Y-51830347D01*
X52670430Y-51815540D01*
X52647297Y-51798384D01*
X52625957Y-51779043D01*
X52606616Y-51757703D01*
X52589460Y-51734570D01*
X52574653Y-51709867D01*
X52562340Y-51683832D01*
X52552637Y-51656715D01*
X52545639Y-51628778D01*
X52541413Y-51600289D01*
X52540000Y-51571523D01*
X52540000Y-50808477D01*
X52541413Y-50779711D01*
X52545639Y-50751222D01*
X52552637Y-50723285D01*
X52562340Y-50696168D01*
X52574653Y-50670133D01*
X52589460Y-50645430D01*
X52606616Y-50622297D01*
X52625957Y-50600957D01*
X52647297Y-50581616D01*
X52670430Y-50564460D01*
X52695133Y-50549653D01*
X52721168Y-50537340D01*
X52748285Y-50527637D01*
X52776222Y-50520639D01*
X52804711Y-50516413D01*
X52833477Y-50515000D01*
X53846523Y-50515000D01*
X53875289Y-50516413D01*
X53875289Y-50516413D01*
G37*
D11*
X53340000Y-51190000D03*
D10*
G36*
X53875289Y-48466413D02*
X53903778Y-48470639D01*
X53931715Y-48477637D01*
X53958832Y-48487340D01*
X53984867Y-48499653D01*
X54009570Y-48514460D01*
X54032703Y-48531616D01*
X54054043Y-48550957D01*
X54073384Y-48572297D01*
X54090540Y-48595430D01*
X54105347Y-48620133D01*
X54117660Y-48646168D01*
X54127363Y-48673285D01*
X54134361Y-48701222D01*
X54138587Y-48729711D01*
X54140000Y-48758477D01*
X54140000Y-49521523D01*
X54138587Y-49550289D01*
X54134361Y-49578778D01*
X54127363Y-49606715D01*
X54117660Y-49633832D01*
X54105347Y-49659867D01*
X54090540Y-49684570D01*
X54073384Y-49707703D01*
X54054043Y-49729043D01*
X54032703Y-49748384D01*
X54009570Y-49765540D01*
X53984867Y-49780347D01*
X53958832Y-49792660D01*
X53931715Y-49802363D01*
X53903778Y-49809361D01*
X53875289Y-49813587D01*
X53846523Y-49815000D01*
X52833477Y-49815000D01*
X52804711Y-49813587D01*
X52776222Y-49809361D01*
X52748285Y-49802363D01*
X52721168Y-49792660D01*
X52695133Y-49780347D01*
X52670430Y-49765540D01*
X52647297Y-49748384D01*
X52625957Y-49729043D01*
X52606616Y-49707703D01*
X52589460Y-49684570D01*
X52574653Y-49659867D01*
X52562340Y-49633832D01*
X52552637Y-49606715D01*
X52545639Y-49578778D01*
X52541413Y-49550289D01*
X52540000Y-49521523D01*
X52540000Y-48758477D01*
X52541413Y-48729711D01*
X52545639Y-48701222D01*
X52552637Y-48673285D01*
X52562340Y-48646168D01*
X52574653Y-48620133D01*
X52589460Y-48595430D01*
X52606616Y-48572297D01*
X52625957Y-48550957D01*
X52647297Y-48531616D01*
X52670430Y-48514460D01*
X52695133Y-48499653D01*
X52721168Y-48487340D01*
X52748285Y-48477637D01*
X52776222Y-48470639D01*
X52804711Y-48466413D01*
X52833477Y-48465000D01*
X53846523Y-48465000D01*
X53875289Y-48466413D01*
X53875289Y-48466413D01*
G37*
D11*
X53340000Y-49140000D03*
G04 #@! TD*
D12*
G04 #@! TO.C,J5*
X56515000Y-55880000D03*
G04 #@! TD*
G04 #@! TO.C,JP2*
X43815000Y-40640000D03*
D13*
X46355000Y-40640000D03*
X48895000Y-40640000D03*
G04 #@! TD*
D14*
G04 #@! TO.C,D1*
X51055000Y-38100000D03*
X54355000Y-38100000D03*
G04 #@! TD*
D15*
G04 #@! TO.C,RN3*
X43250000Y-43550000D03*
D16*
X44850000Y-43550000D03*
X44050000Y-43550000D03*
D15*
X45650000Y-43550000D03*
D16*
X44050000Y-45350000D03*
D15*
X43250000Y-45350000D03*
D16*
X44850000Y-45350000D03*
D15*
X45650000Y-45350000D03*
G04 #@! TD*
D12*
G04 #@! TO.C,JP1*
X43815000Y-38100000D03*
D13*
X46355000Y-38100000D03*
X48895000Y-38100000D03*
G04 #@! TD*
D17*
G04 #@! TO.C,U4*
X88900000Y-50800000D03*
D18*
X91440000Y-50800000D03*
X93980000Y-50800000D03*
X96520000Y-50800000D03*
X99060000Y-50800000D03*
X99060000Y-43180000D03*
X96520000Y-43180000D03*
X93980000Y-43180000D03*
X91440000Y-43180000D03*
X88900000Y-43180000D03*
G04 #@! TD*
D13*
G04 #@! TO.C,J4*
X61595000Y-55880000D03*
X64135000Y-55880000D03*
X66675000Y-55880000D03*
X69215000Y-55880000D03*
X71755000Y-55880000D03*
X74295000Y-55880000D03*
X76835000Y-55880000D03*
X79375000Y-55880000D03*
X81915000Y-55880000D03*
X84455000Y-55880000D03*
X86995000Y-55880000D03*
X89535000Y-55880000D03*
X92075000Y-55880000D03*
X94615000Y-55880000D03*
X97155000Y-55880000D03*
D12*
X99695000Y-55880000D03*
G04 #@! TD*
G04 #@! TO.C,J2*
X99695000Y-38100000D03*
D13*
X97155000Y-38100000D03*
X94615000Y-38100000D03*
X92075000Y-38100000D03*
X89535000Y-38100000D03*
X86995000Y-38100000D03*
X84455000Y-38100000D03*
X81915000Y-38100000D03*
X79375000Y-38100000D03*
X76835000Y-38100000D03*
X74295000Y-38100000D03*
X71755000Y-38100000D03*
X69215000Y-38100000D03*
X66675000Y-38100000D03*
X64135000Y-38100000D03*
X61595000Y-38100000D03*
G04 #@! TD*
D17*
G04 #@! TO.C,U3*
X73660000Y-50800000D03*
D18*
X76200000Y-50800000D03*
X78740000Y-50800000D03*
X81280000Y-50800000D03*
X83820000Y-50800000D03*
X83820000Y-43180000D03*
X81280000Y-43180000D03*
X78740000Y-43180000D03*
X76200000Y-43180000D03*
X73660000Y-43180000D03*
G04 #@! TD*
D10*
G04 #@! TO.C,C2*
G36*
X42445289Y-47831413D02*
X42473778Y-47835639D01*
X42501715Y-47842637D01*
X42528832Y-47852340D01*
X42554867Y-47864653D01*
X42579570Y-47879460D01*
X42602703Y-47896616D01*
X42624043Y-47915957D01*
X42643384Y-47937297D01*
X42660540Y-47960430D01*
X42675347Y-47985133D01*
X42687660Y-48011168D01*
X42697363Y-48038285D01*
X42704361Y-48066222D01*
X42708587Y-48094711D01*
X42710000Y-48123477D01*
X42710000Y-48886523D01*
X42708587Y-48915289D01*
X42704361Y-48943778D01*
X42697363Y-48971715D01*
X42687660Y-48998832D01*
X42675347Y-49024867D01*
X42660540Y-49049570D01*
X42643384Y-49072703D01*
X42624043Y-49094043D01*
X42602703Y-49113384D01*
X42579570Y-49130540D01*
X42554867Y-49145347D01*
X42528832Y-49157660D01*
X42501715Y-49167363D01*
X42473778Y-49174361D01*
X42445289Y-49178587D01*
X42416523Y-49180000D01*
X41403477Y-49180000D01*
X41374711Y-49178587D01*
X41346222Y-49174361D01*
X41318285Y-49167363D01*
X41291168Y-49157660D01*
X41265133Y-49145347D01*
X41240430Y-49130540D01*
X41217297Y-49113384D01*
X41195957Y-49094043D01*
X41176616Y-49072703D01*
X41159460Y-49049570D01*
X41144653Y-49024867D01*
X41132340Y-48998832D01*
X41122637Y-48971715D01*
X41115639Y-48943778D01*
X41111413Y-48915289D01*
X41110000Y-48886523D01*
X41110000Y-48123477D01*
X41111413Y-48094711D01*
X41115639Y-48066222D01*
X41122637Y-48038285D01*
X41132340Y-48011168D01*
X41144653Y-47985133D01*
X41159460Y-47960430D01*
X41176616Y-47937297D01*
X41195957Y-47915957D01*
X41217297Y-47896616D01*
X41240430Y-47879460D01*
X41265133Y-47864653D01*
X41291168Y-47852340D01*
X41318285Y-47842637D01*
X41346222Y-47835639D01*
X41374711Y-47831413D01*
X41403477Y-47830000D01*
X42416523Y-47830000D01*
X42445289Y-47831413D01*
X42445289Y-47831413D01*
G37*
D11*
X41910000Y-48505000D03*
D10*
G36*
X42445289Y-49881413D02*
X42473778Y-49885639D01*
X42501715Y-49892637D01*
X42528832Y-49902340D01*
X42554867Y-49914653D01*
X42579570Y-49929460D01*
X42602703Y-49946616D01*
X42624043Y-49965957D01*
X42643384Y-49987297D01*
X42660540Y-50010430D01*
X42675347Y-50035133D01*
X42687660Y-50061168D01*
X42697363Y-50088285D01*
X42704361Y-50116222D01*
X42708587Y-50144711D01*
X42710000Y-50173477D01*
X42710000Y-50936523D01*
X42708587Y-50965289D01*
X42704361Y-50993778D01*
X42697363Y-51021715D01*
X42687660Y-51048832D01*
X42675347Y-51074867D01*
X42660540Y-51099570D01*
X42643384Y-51122703D01*
X42624043Y-51144043D01*
X42602703Y-51163384D01*
X42579570Y-51180540D01*
X42554867Y-51195347D01*
X42528832Y-51207660D01*
X42501715Y-51217363D01*
X42473778Y-51224361D01*
X42445289Y-51228587D01*
X42416523Y-51230000D01*
X41403477Y-51230000D01*
X41374711Y-51228587D01*
X41346222Y-51224361D01*
X41318285Y-51217363D01*
X41291168Y-51207660D01*
X41265133Y-51195347D01*
X41240430Y-51180540D01*
X41217297Y-51163384D01*
X41195957Y-51144043D01*
X41176616Y-51122703D01*
X41159460Y-51099570D01*
X41144653Y-51074867D01*
X41132340Y-51048832D01*
X41122637Y-51021715D01*
X41115639Y-50993778D01*
X41111413Y-50965289D01*
X41110000Y-50936523D01*
X41110000Y-50173477D01*
X41111413Y-50144711D01*
X41115639Y-50116222D01*
X41122637Y-50088285D01*
X41132340Y-50061168D01*
X41144653Y-50035133D01*
X41159460Y-50010430D01*
X41176616Y-49987297D01*
X41195957Y-49965957D01*
X41217297Y-49946616D01*
X41240430Y-49929460D01*
X41265133Y-49914653D01*
X41291168Y-49902340D01*
X41318285Y-49892637D01*
X41346222Y-49885639D01*
X41374711Y-49881413D01*
X41403477Y-49880000D01*
X42416523Y-49880000D01*
X42445289Y-49881413D01*
X42445289Y-49881413D01*
G37*
D11*
X41910000Y-50555000D03*
G04 #@! TD*
D15*
G04 #@! TO.C,RN2*
X58490000Y-46090000D03*
D16*
X59290000Y-46090000D03*
D15*
X60890000Y-46090000D03*
D16*
X60090000Y-46090000D03*
D15*
X58490000Y-47890000D03*
D16*
X60090000Y-47890000D03*
X59290000Y-47890000D03*
D15*
X60890000Y-47890000D03*
G04 #@! TD*
G04 #@! TO.C,RN1*
X64840000Y-46090000D03*
D16*
X66440000Y-46090000D03*
X65640000Y-46090000D03*
D15*
X67240000Y-46090000D03*
D16*
X65640000Y-47890000D03*
D15*
X64840000Y-47890000D03*
D16*
X66440000Y-47890000D03*
D15*
X67240000Y-47890000D03*
G04 #@! TD*
D10*
G04 #@! TO.C,C1*
G36*
X45495289Y-46191413D02*
X45523778Y-46195639D01*
X45551715Y-46202637D01*
X45578832Y-46212340D01*
X45604867Y-46224653D01*
X45629570Y-46239460D01*
X45652703Y-46256616D01*
X45674043Y-46275957D01*
X45693384Y-46297297D01*
X45710540Y-46320430D01*
X45725347Y-46345133D01*
X45737660Y-46371168D01*
X45747363Y-46398285D01*
X45754361Y-46426222D01*
X45758587Y-46454711D01*
X45760000Y-46483477D01*
X45760000Y-47496523D01*
X45758587Y-47525289D01*
X45754361Y-47553778D01*
X45747363Y-47581715D01*
X45737660Y-47608832D01*
X45725347Y-47634867D01*
X45710540Y-47659570D01*
X45693384Y-47682703D01*
X45674043Y-47704043D01*
X45652703Y-47723384D01*
X45629570Y-47740540D01*
X45604867Y-47755347D01*
X45578832Y-47767660D01*
X45551715Y-47777363D01*
X45523778Y-47784361D01*
X45495289Y-47788587D01*
X45466523Y-47790000D01*
X44703477Y-47790000D01*
X44674711Y-47788587D01*
X44646222Y-47784361D01*
X44618285Y-47777363D01*
X44591168Y-47767660D01*
X44565133Y-47755347D01*
X44540430Y-47740540D01*
X44517297Y-47723384D01*
X44495957Y-47704043D01*
X44476616Y-47682703D01*
X44459460Y-47659570D01*
X44444653Y-47634867D01*
X44432340Y-47608832D01*
X44422637Y-47581715D01*
X44415639Y-47553778D01*
X44411413Y-47525289D01*
X44410000Y-47496523D01*
X44410000Y-46483477D01*
X44411413Y-46454711D01*
X44415639Y-46426222D01*
X44422637Y-46398285D01*
X44432340Y-46371168D01*
X44444653Y-46345133D01*
X44459460Y-46320430D01*
X44476616Y-46297297D01*
X44495957Y-46275957D01*
X44517297Y-46256616D01*
X44540430Y-46239460D01*
X44565133Y-46224653D01*
X44591168Y-46212340D01*
X44618285Y-46202637D01*
X44646222Y-46195639D01*
X44674711Y-46191413D01*
X44703477Y-46190000D01*
X45466523Y-46190000D01*
X45495289Y-46191413D01*
X45495289Y-46191413D01*
G37*
D11*
X45085000Y-46990000D03*
D10*
G36*
X47545289Y-46191413D02*
X47573778Y-46195639D01*
X47601715Y-46202637D01*
X47628832Y-46212340D01*
X47654867Y-46224653D01*
X47679570Y-46239460D01*
X47702703Y-46256616D01*
X47724043Y-46275957D01*
X47743384Y-46297297D01*
X47760540Y-46320430D01*
X47775347Y-46345133D01*
X47787660Y-46371168D01*
X47797363Y-46398285D01*
X47804361Y-46426222D01*
X47808587Y-46454711D01*
X47810000Y-46483477D01*
X47810000Y-47496523D01*
X47808587Y-47525289D01*
X47804361Y-47553778D01*
X47797363Y-47581715D01*
X47787660Y-47608832D01*
X47775347Y-47634867D01*
X47760540Y-47659570D01*
X47743384Y-47682703D01*
X47724043Y-47704043D01*
X47702703Y-47723384D01*
X47679570Y-47740540D01*
X47654867Y-47755347D01*
X47628832Y-47767660D01*
X47601715Y-47777363D01*
X47573778Y-47784361D01*
X47545289Y-47788587D01*
X47516523Y-47790000D01*
X46753477Y-47790000D01*
X46724711Y-47788587D01*
X46696222Y-47784361D01*
X46668285Y-47777363D01*
X46641168Y-47767660D01*
X46615133Y-47755347D01*
X46590430Y-47740540D01*
X46567297Y-47723384D01*
X46545957Y-47704043D01*
X46526616Y-47682703D01*
X46509460Y-47659570D01*
X46494653Y-47634867D01*
X46482340Y-47608832D01*
X46472637Y-47581715D01*
X46465639Y-47553778D01*
X46461413Y-47525289D01*
X46460000Y-47496523D01*
X46460000Y-46483477D01*
X46461413Y-46454711D01*
X46465639Y-46426222D01*
X46472637Y-46398285D01*
X46482340Y-46371168D01*
X46494653Y-46345133D01*
X46509460Y-46320430D01*
X46526616Y-46297297D01*
X46545957Y-46275957D01*
X46567297Y-46256616D01*
X46590430Y-46239460D01*
X46615133Y-46224653D01*
X46641168Y-46212340D01*
X46668285Y-46202637D01*
X46696222Y-46195639D01*
X46724711Y-46191413D01*
X46753477Y-46190000D01*
X47516523Y-46190000D01*
X47545289Y-46191413D01*
X47545289Y-46191413D01*
G37*
D11*
X47135000Y-46990000D03*
G04 #@! TD*
D10*
G04 #@! TO.C,R3*
G36*
X53895289Y-42381413D02*
X53923778Y-42385639D01*
X53951715Y-42392637D01*
X53978832Y-42402340D01*
X54004867Y-42414653D01*
X54029570Y-42429460D01*
X54052703Y-42446616D01*
X54074043Y-42465957D01*
X54093384Y-42487297D01*
X54110540Y-42510430D01*
X54125347Y-42535133D01*
X54137660Y-42561168D01*
X54147363Y-42588285D01*
X54154361Y-42616222D01*
X54158587Y-42644711D01*
X54160000Y-42673477D01*
X54160000Y-43686523D01*
X54158587Y-43715289D01*
X54154361Y-43743778D01*
X54147363Y-43771715D01*
X54137660Y-43798832D01*
X54125347Y-43824867D01*
X54110540Y-43849570D01*
X54093384Y-43872703D01*
X54074043Y-43894043D01*
X54052703Y-43913384D01*
X54029570Y-43930540D01*
X54004867Y-43945347D01*
X53978832Y-43957660D01*
X53951715Y-43967363D01*
X53923778Y-43974361D01*
X53895289Y-43978587D01*
X53866523Y-43980000D01*
X53103477Y-43980000D01*
X53074711Y-43978587D01*
X53046222Y-43974361D01*
X53018285Y-43967363D01*
X52991168Y-43957660D01*
X52965133Y-43945347D01*
X52940430Y-43930540D01*
X52917297Y-43913384D01*
X52895957Y-43894043D01*
X52876616Y-43872703D01*
X52859460Y-43849570D01*
X52844653Y-43824867D01*
X52832340Y-43798832D01*
X52822637Y-43771715D01*
X52815639Y-43743778D01*
X52811413Y-43715289D01*
X52810000Y-43686523D01*
X52810000Y-42673477D01*
X52811413Y-42644711D01*
X52815639Y-42616222D01*
X52822637Y-42588285D01*
X52832340Y-42561168D01*
X52844653Y-42535133D01*
X52859460Y-42510430D01*
X52876616Y-42487297D01*
X52895957Y-42465957D01*
X52917297Y-42446616D01*
X52940430Y-42429460D01*
X52965133Y-42414653D01*
X52991168Y-42402340D01*
X53018285Y-42392637D01*
X53046222Y-42385639D01*
X53074711Y-42381413D01*
X53103477Y-42380000D01*
X53866523Y-42380000D01*
X53895289Y-42381413D01*
X53895289Y-42381413D01*
G37*
D11*
X53485000Y-43180000D03*
D10*
G36*
X51845289Y-42381413D02*
X51873778Y-42385639D01*
X51901715Y-42392637D01*
X51928832Y-42402340D01*
X51954867Y-42414653D01*
X51979570Y-42429460D01*
X52002703Y-42446616D01*
X52024043Y-42465957D01*
X52043384Y-42487297D01*
X52060540Y-42510430D01*
X52075347Y-42535133D01*
X52087660Y-42561168D01*
X52097363Y-42588285D01*
X52104361Y-42616222D01*
X52108587Y-42644711D01*
X52110000Y-42673477D01*
X52110000Y-43686523D01*
X52108587Y-43715289D01*
X52104361Y-43743778D01*
X52097363Y-43771715D01*
X52087660Y-43798832D01*
X52075347Y-43824867D01*
X52060540Y-43849570D01*
X52043384Y-43872703D01*
X52024043Y-43894043D01*
X52002703Y-43913384D01*
X51979570Y-43930540D01*
X51954867Y-43945347D01*
X51928832Y-43957660D01*
X51901715Y-43967363D01*
X51873778Y-43974361D01*
X51845289Y-43978587D01*
X51816523Y-43980000D01*
X51053477Y-43980000D01*
X51024711Y-43978587D01*
X50996222Y-43974361D01*
X50968285Y-43967363D01*
X50941168Y-43957660D01*
X50915133Y-43945347D01*
X50890430Y-43930540D01*
X50867297Y-43913384D01*
X50845957Y-43894043D01*
X50826616Y-43872703D01*
X50809460Y-43849570D01*
X50794653Y-43824867D01*
X50782340Y-43798832D01*
X50772637Y-43771715D01*
X50765639Y-43743778D01*
X50761413Y-43715289D01*
X50760000Y-43686523D01*
X50760000Y-42673477D01*
X50761413Y-42644711D01*
X50765639Y-42616222D01*
X50772637Y-42588285D01*
X50782340Y-42561168D01*
X50794653Y-42535133D01*
X50809460Y-42510430D01*
X50826616Y-42487297D01*
X50845957Y-42465957D01*
X50867297Y-42446616D01*
X50890430Y-42429460D01*
X50915133Y-42414653D01*
X50941168Y-42402340D01*
X50968285Y-42392637D01*
X50996222Y-42385639D01*
X51024711Y-42381413D01*
X51053477Y-42380000D01*
X51816523Y-42380000D01*
X51845289Y-42381413D01*
X51845289Y-42381413D01*
G37*
D11*
X51435000Y-43180000D03*
G04 #@! TD*
D12*
G04 #@! TO.C,J3*
X56515000Y-38100000D03*
G04 #@! TD*
G04 #@! TO.C,J1*
X51435000Y-40640000D03*
G04 #@! TD*
D18*
G04 #@! TO.C,U1*
X58420000Y-43180000D03*
X60960000Y-43180000D03*
X63500000Y-43180000D03*
X66040000Y-43180000D03*
X68580000Y-43180000D03*
X68580000Y-50800000D03*
X66040000Y-50800000D03*
X63500000Y-50800000D03*
X60960000Y-50800000D03*
D17*
X58420000Y-50800000D03*
G04 #@! TD*
M02*
