G04 #@! TF.GenerationSoftware,KiCad,Pcbnew,(5.0.0)*
G04 #@! TF.CreationDate,2019-08-21T13:25:49-04:00*
G04 #@! TF.ProjectId,7segment,377365676D656E742E6B696361645F70,B*
G04 #@! TF.SameCoordinates,Original*
G04 #@! TF.FileFunction,Soldermask,Top*
G04 #@! TF.FilePolarity,Negative*
%FSLAX46Y46*%
G04 Gerber Fmt 4.6, Leading zero omitted, Abs format (unit mm)*
G04 Created by KiCad (PCBNEW (5.0.0)) date 08/21/19 13:25:49*
%MOMM*%
%LPD*%
G01*
G04 APERTURE LIST*
%ADD10R,1.900000X1.900000*%
%ADD11O,1.900000X1.900000*%
%ADD12R,1.800000X1.800000*%
%ADD13C,1.800000*%
%ADD14R,1.700000X0.750000*%
%ADD15R,0.750000X1.700000*%
G04 APERTURE END LIST*
D10*
G04 #@! TO.C,J6*
X59055000Y-55880000D03*
G04 #@! TD*
G04 #@! TO.C,J7*
X59055000Y-38100000D03*
G04 #@! TD*
G04 #@! TO.C,J5*
X56515000Y-55880000D03*
G04 #@! TD*
G04 #@! TO.C,JP2*
X43815000Y-40640000D03*
D11*
X46355000Y-40640000D03*
X48895000Y-40640000D03*
G04 #@! TD*
D10*
G04 #@! TO.C,JP1*
X43815000Y-38100000D03*
D11*
X46355000Y-38100000D03*
X48895000Y-38100000D03*
G04 #@! TD*
D12*
G04 #@! TO.C,U4*
X88900000Y-50800000D03*
D13*
X91440000Y-50800000D03*
X93980000Y-50800000D03*
X96520000Y-50800000D03*
X99060000Y-50800000D03*
X99060000Y-43180000D03*
X96520000Y-43180000D03*
X93980000Y-43180000D03*
X91440000Y-43180000D03*
X88900000Y-43180000D03*
G04 #@! TD*
D11*
G04 #@! TO.C,J4*
X61595000Y-55880000D03*
X64135000Y-55880000D03*
X66675000Y-55880000D03*
X69215000Y-55880000D03*
X71755000Y-55880000D03*
X74295000Y-55880000D03*
X76835000Y-55880000D03*
X79375000Y-55880000D03*
X81915000Y-55880000D03*
X84455000Y-55880000D03*
X86995000Y-55880000D03*
X89535000Y-55880000D03*
X92075000Y-55880000D03*
X94615000Y-55880000D03*
X97155000Y-55880000D03*
D10*
X99695000Y-55880000D03*
G04 #@! TD*
G04 #@! TO.C,J2*
X99695000Y-38100000D03*
D11*
X97155000Y-38100000D03*
X94615000Y-38100000D03*
X92075000Y-38100000D03*
X89535000Y-38100000D03*
X86995000Y-38100000D03*
X84455000Y-38100000D03*
X81915000Y-38100000D03*
X79375000Y-38100000D03*
X76835000Y-38100000D03*
X74295000Y-38100000D03*
X71755000Y-38100000D03*
X69215000Y-38100000D03*
X66675000Y-38100000D03*
X64135000Y-38100000D03*
X61595000Y-38100000D03*
G04 #@! TD*
D12*
G04 #@! TO.C,U3*
X73660000Y-50800000D03*
D13*
X76200000Y-50800000D03*
X78740000Y-50800000D03*
X81280000Y-50800000D03*
X83820000Y-50800000D03*
X83820000Y-43180000D03*
X81280000Y-43180000D03*
X78740000Y-43180000D03*
X76200000Y-43180000D03*
X73660000Y-43180000D03*
G04 #@! TD*
D14*
G04 #@! TO.C,U2*
X41925000Y-46165000D03*
X41925000Y-46965000D03*
X41925000Y-47765000D03*
X41925000Y-48565000D03*
X41925000Y-49365000D03*
X41925000Y-50165000D03*
X41925000Y-50965000D03*
X41925000Y-51765000D03*
X41925000Y-52565000D03*
X41925000Y-53365000D03*
X41925000Y-54165000D03*
D15*
X43625000Y-55865000D03*
X44425000Y-55865000D03*
X45225000Y-55865000D03*
X46025000Y-55865000D03*
X46825000Y-55865000D03*
X47625000Y-55865000D03*
X48425000Y-55865000D03*
X49225000Y-55865000D03*
X50025000Y-55865000D03*
X50825000Y-55865000D03*
X51625000Y-55865000D03*
D14*
X53325000Y-54165000D03*
X53325000Y-53365000D03*
X53325000Y-52565000D03*
X53325000Y-51765000D03*
X53325000Y-50965000D03*
X53325000Y-50165000D03*
X53325000Y-49365000D03*
X53325000Y-48565000D03*
X53325000Y-47765000D03*
X53325000Y-46965000D03*
X53325000Y-46165000D03*
D15*
X51625000Y-44465000D03*
X50825000Y-44465000D03*
X50025000Y-44465000D03*
X49225000Y-44465000D03*
X48425000Y-44465000D03*
X47625000Y-44465000D03*
X46825000Y-44465000D03*
X46025000Y-44465000D03*
X45225000Y-44465000D03*
X44425000Y-44465000D03*
X43625000Y-44465000D03*
G04 #@! TD*
D10*
G04 #@! TO.C,J3*
X56515000Y-38100000D03*
G04 #@! TD*
G04 #@! TO.C,J1*
X51435000Y-40640000D03*
G04 #@! TD*
D13*
G04 #@! TO.C,U1*
X58420000Y-43180000D03*
X60960000Y-43180000D03*
X63500000Y-43180000D03*
X66040000Y-43180000D03*
X68580000Y-43180000D03*
X68580000Y-50800000D03*
X66040000Y-50800000D03*
X63500000Y-50800000D03*
X60960000Y-50800000D03*
D12*
X58420000Y-50800000D03*
G04 #@! TD*
M02*
